# xmcd
#
# Track frame offsets:
#        150
#        15387
#        31395
#        49242
#
# Disc length: 859 seconds
#
# Revision: 4
# Processed by: cddbd v1.5PL3 Copyright (c) Steve Scherf et al.
# Submitted via: ExactAudioCopy v0.95a4
#
DISCID=27035904
DTITLE=Swinging Popsicle - I Love Your Smile
DYEAR=1998
DGENRE=
TTITLE0=I Love Your Smile
TTITLE1=Windy Song
TTITLE2=Tiny Drops
TTITLE3=I Love Your Smile(back track)
EXTD=
EXTT0=
EXTT1=
EXTT2=
EXTT3=
PLAYORDER=
